<svg width="16" height="16" viewBox="0 0 16 16" fill="none" xmlns="http://www.w3.org/2000/svg">
<path d="M7.8125 9.7565C7.75416 9.7355 7.7 9.7 7.65 9.65L5.85 7.85C5.75 7.75 5.702 7.63333 5.706 7.5C5.71 7.36667 5.758 7.25 5.85 7.15C5.95 7.05 6.06883 6.998 6.2065 6.994C6.34416 6.99 6.46283 7.03783 6.5625 7.1375L7.5 8.075V4.5C7.5 4.35833 7.548 4.23967 7.644 4.144C7.74 4.04834 7.85866 4.00034 8 4C8.14133 3.99967 8.26016 4.04767 8.3565 4.144C8.45283 4.24034 8.50066 4.359 8.5 4.5V8.075L9.4375 7.1375C9.5375 7.0375 9.65633 6.9895 9.794 6.9935C9.93166 6.9975 10.0503 7.04967 10.15 7.15C10.2417 7.25 10.2897 7.36667 10.294 7.5C10.2983 7.63333 10.2503 7.75 10.15 7.85L8.35 9.65C8.3 9.7 8.24583 9.7355 8.1875 9.7565C8.12916 9.7775 8.06666 9.78783 8 9.7875C7.93333 9.78717 7.87083 9.77683 7.8125 9.7565ZM5 12C4.725 12 4.48967 11.9022 4.294 11.7065C4.09833 11.5108 4.00033 11.2753 4 11V10C4 9.85833 4.048 9.73967 4.144 9.644C4.24 9.54833 4.35867 9.50033 4.5 9.5C4.64133 9.49967 4.76017 9.54767 4.8565 9.644C4.95283 9.74033 5.00067 9.859 5 10V11H11V10C11 9.85833 11.048 9.73967 11.144 9.644C11.24 9.54833 11.3587 9.50033 11.5 9.5C11.6413 9.49967 11.7602 9.54767 11.8565 9.644C11.9528 11.9528 12.0007 9.859 12 10V11C12 11.275 11.9022 11.5105 11.7065 11.7065C11.5108 11.9025 11.2753 12.0003 11 12H5Z" fill="#202020"/>
</svg>
